<svg xmlns="http://www.w3.org/2000/svg" width="56.693" height="56.693">
<path fill="#397dc6" stroke-width="1.33333" d="M56.693 49.135c0 4.157-3.401 7.558-7.56 7.558H7.56c-4.159 0-7.56-3.401-7.56-7.558V7.56C0 3.403 3.401 0 7.56 0h41.573c4.159 0 7.56 3.403 7.56 7.56z"/>
<path fill="#c9e7f6" d="M12.596 23.901c1.639 1.472 2.416 3.67 3.388 5.69.445.925 1.07 1.758 1.413 2.669-2.305.21-2.298 2.644-2.6 4.485-.36 2.218-2.225 3.042-2.906 4.956-.65 1.82 1.081 4.32 1.778 6.002.891 2.136 1.495 3.628 3.011 5.28a105 105 0 0 0 2.621 2.732c.267.269 22.207.226 22.088-.06-1.252-3.046-1.738-6.672-2.432-9.847-.445-2.043-1.148-4.388-2.261-6.273-1.168-1.98-2.559-3.516-3.364-5.728-1.484-4.078-2.361-8.171-2.93-12.38-.285-2.111-.091-4.215-.514-6.304-.415-2.051-.717-4.036-1.024-6.127-.148-1.019-.599-2.116-.844-3.11-.252-1.029-.244-2.2-.763-3.162-.966-1.796-3.573-1.921-4.641-.18-1.115 1.816-.088 4.136.141 6.02.256 2.103.69 4.113.714 6.277.02 1.902-.115 4.058.094 5.927.162 1.419 1.703 6.29-.33 7.019-1.944.696-4.043-5.71-5.12-6.88-1.446-1.576-2.592-3.17-3.896-4.872-.659-.86-1.704-1.495-2.375-2.374-.636-.833-1.057-1.742-1.69-2.556-1.19-1.526-2.586-3.532-4.771-2.912-3.268.93-1.066 3.027-.068 4.627 1.21 1.936 2.172 4.095 3.24 6.1 1.189 2.241 2.172 3.303 4.041 4.981"/>
<path fill="none" stroke="#34699f" stroke-width=".9999974999999999" d="M12.596 23.901c1.639 1.472 2.416 3.67 3.388 5.69.445.925 1.07 1.758 1.413 2.669-2.305.21-2.298 2.644-2.6 4.485-.36 2.218-2.225 3.042-2.906 4.956-.65 1.82 1.081 4.32 1.778 6.002.891 2.136 1.495 3.628 3.011 5.28a105 105 0 0 0 2.621 2.732c.267.269 22.207.226 22.088-.06-1.252-3.046-1.738-6.672-2.432-9.847-.445-2.043-1.148-4.388-2.261-6.273-1.168-1.98-2.559-3.516-3.364-5.728-1.484-4.078-2.361-8.171-2.93-12.38-.285-2.111-.091-4.215-.514-6.304-.415-2.051-.717-4.036-1.024-6.127-.148-1.019-.599-2.116-.844-3.11-.252-1.029-.244-2.2-.763-3.162-.966-1.796-3.573-1.921-4.641-.18-1.115 1.816-.088 4.136.141 6.02.256 2.103.69 4.113.714 6.277.02 1.902-.115 4.058.094 5.927.162 1.419 1.703 6.29-.33 7.019-1.944.696-4.043-5.71-5.12-6.88-1.446-1.576-2.592-3.17-3.896-4.872-.659-.86-1.704-1.495-2.375-2.374-.636-.833-1.057-1.742-1.69-2.556-1.19-1.526-2.586-3.532-4.771-2.912-3.268.93-1.066 3.027-.068 4.627 1.21 1.936 2.172 4.095 3.24 6.1 1.189 2.241 2.172 3.303 4.041 4.981Z"/>
<path fill="#c9e7f6" d="M22.067 43.815c.028.964 2.948 4.393 3.92 4.742.95.343 2.18-.334 2.734-1.09.762-1.034.252-1.574-.064-2.687"/>
<path fill="none" stroke="#34699f" stroke-width=".9999974999999999" d="M22.067 43.815c.028.964 2.948 4.393 3.92 4.742.95.343 2.18-.334 2.734-1.09.762-1.034.252-1.574-.064-2.687"/>
<path fill="#c9e7f6" d="M22.11 36.904c-1.137-2.36-2.629-4.552-4.99-4.643"/>
<path fill="none" stroke="#34699f" stroke-width=".9999974999999999" d="M22.11 36.904c-1.137-2.36-2.629-4.552-4.99-4.643"/>
<path fill="#c9e7f6" d="M17.435 39.92c-.864-.35-1.984-2.365-2.672-3.004"/>
<path fill="none" stroke="#34699f" stroke-width=".9999974999999999" d="M17.435 39.92c-.864-.35-1.984-2.365-2.672-3.004"/>
<path fill="#c9e7f6" d="M13.153 45.347c1.788.902 4.271 1.132 6.227 2.028 1.33.612 4.64 3.029 5.283.246"/>
<path fill="none" stroke="#34699f" stroke-width=".9999974999999999" d="M13.153 45.347c1.788.902 4.271 1.132 6.227 2.028 1.33.612 4.64 3.029 5.283.246"/>
<path fill="#c9e7f6" d="M26.685 48.64c-.194 1.553 1.607 5.475 3.056 6.033"/>
<path fill="none" stroke="#34699f" stroke-width=".9999974999999999" d="M26.685 48.64c-.194 1.553 1.607 5.475 3.056 6.033"/>
<path fill="#c9e7f6" d="M36.363 53.787c1.52-.763 1.7-3.222 1.734-4.663"/>
<path fill="none" stroke="#34699f" stroke-width=".9999974999999999" d="M36.363 53.787c1.52-.763 1.7-3.222 1.734-4.663"/>
<path fill="#c9e7f6" d="M24.767 44.97c.044-.105-.142-.3.06-.206.232 1.135.497 1.916 1.656 1.864 1.346-.06 1.734-1.053 1.373-1.921"/>
<path fill="none" stroke="#34699f" stroke-width=".9999974999999999" d="M24.767 44.97c.044-.105-.142-.3.06-.206.232 1.135.497 1.916 1.656 1.864 1.346-.06 1.734-1.053 1.373-1.921"/>
<path fill="#c9e7f6" d="M23.027 45.807c-.366.088-.774.366-1.094.548.378 1.145 1.726 1.873 2.794 1.082"/>
<path fill="none" stroke="#34699f" stroke-width=".9999974999999999" d="M23.027 45.807c-.366.088-.774.366-1.094.548.378 1.145 1.726 1.873 2.794 1.082"/>
<path fill="#c9e7f6" d="M9.147 16.643c.71-.547 1.516-.948 2.185-1.51"/>
<path fill="none" stroke="#34699f" stroke-width=".9999974999999999" d="M9.147 16.643c.71-.547 1.516-.948 2.185-1.51"/>
<path fill="#c9e7f6" d="M23.459 9.145c.205.456 3.172-.005 3.95-.062"/>
<path fill="none" stroke="#34699f" stroke-width=".9999974999999999" d="M23.459 9.145c.205.456 3.172-.005 3.95-.062"/>
<path fill="#c9e7f6" d="M24.967 15.467c.777.642 2.55.461 3.393.05"/>
<path fill="none" stroke="#34699f" stroke-width=".9999974999999999" d="M24.967 15.467c.777.642 2.55.461 3.393.05"/>
<path fill="#c9e7f6" d="M12.273 22.184c.827-.956 2.439-1.7 3.438-2.725"/>
<path fill="none" stroke="#34699f" stroke-width=".9999974999999999" d="M12.273 22.184c.827-.956 2.439-1.7 3.438-2.725"/>
<path fill="#c9e7f6" d="M15.327 48.59c-.05-.018-.378 0-.2-.058.706-.39 1.701-1.087 2.141-1.641"/>
<path fill="none" stroke="#34699f" stroke-width=".9999974999999999" d="M15.327 48.59c-.05-.018-.378 0-.2-.058.706-.39 1.701-1.087 2.141-1.641"/>
<path fill="#c9e7f6" d="M28.292 32.245c.01 1.31-.49 2.995-.867 4.248"/>
<path fill="none" stroke="#34699f" stroke-width=".9999974999999999" d="M28.292 32.245c.01 1.31-.49 2.995-.867 4.248"/>
<path fill="#c9e7f6" d="M35.592 39.455c3.513.042 1.235 6.358.215 6.176"/>
<path fill="none" stroke="#34699f" stroke-width=".9999974999999999" d="M35.592 39.455c3.513.042 1.235 6.358.215 6.176"/>
<path fill="#c9e7f6" d="M33.703 37.757c-1.046 1.09-4.423.055-5.642-.492-1.912-.86-3.79-1.188-5.872-.586-1.685.488-4.242 1.362-4.461 3.44-.233 2.222 2.476 3.273 4.197 3.726 3.288.87 6.608.776 9.867 1.724"/>
<path fill="none" stroke="#34699f" stroke-width=".9999974999999999" d="M33.703 37.757c-1.046 1.09-4.423.055-5.642-.492-1.912-.86-3.79-1.188-5.872-.586-1.685.488-4.242 1.362-4.461 3.44-.233 2.222 2.476 3.273 4.197 3.726 3.288.87 6.608.776 9.867 1.724"/>
<path fill="#c9e7f6" d="M0 0c-.251-1.043-.621-1.581-1.709-1.516-.864.051-1.969.639-1.608 1.67.739 2.116 4.618 1.012 2.745-1.349" transform="matrix(1.33333 0 0 -1.33333 23.719 40.57)"/>
<path fill="none" stroke="#34699f" stroke-width=".75" d="M0 0c-.251-1.043-.621-1.581-1.709-1.516-.864.051-1.969.639-1.608 1.67.739 2.116 4.618 1.012 2.745-1.349" transform="matrix(1.33333 0 0 -1.33333 23.719 40.57)"/>
</svg>
