<svg xmlns="http://www.w3.org/2000/svg" width="56.693" height="56.693">
<path fill="#bf2329" stroke-width="1.33333" d="M56.693 49.135c0 4.157-3.402 7.558-7.558 7.558H7.559C3.403 56.693 0 53.292 0 49.135V7.56C0 3.403 3.403 0 7.559 0h41.576c4.156 0 7.558 3.403 7.558 7.56z"/>
<path fill="#f14d3e" stroke-width="1.33333" d="m15.776 26.877-4.195-4.024 9.55-9.549 6.896 1.273-5.411 5.518S48.01 44.104 49.07 45.27s.069 2.412-.462 3.046c-.53.639-1.921 1.454-2.993.394-1.143-1.126-25.419-26.14-25.419-26.14Z"/>
<path fill="#f14d3e" stroke-width="1.33333" d="M15.765 35.833s10.248 5.45 16.268 4.802c6.02-.65 11.714-3.5 11.47-14.482-.244-10.978-15.538-20.7-15.538-20.7s21.07 5.328 21.556 22.043c.408 13.96-8.052 19.199-16.592 18.792S16.496 38.76 16.496 38.76l-.65.57.023.046s.642 1.343.114 1.95c-1.006 1.16-1.939-.067-2.46.474-.52.538-1.572 4.027-3.17 5.596-1.596 1.567-3.029 2.192-4.104 1.655l-.424-.339c-.666-1-.221-2.5 1.138-4.276 1.361-1.777 4.693-3.25 5.164-3.833s-.86-1.36.166-2.497c.542-.598 1.951-.128 1.951-.128z"/>
</svg>
