<svg xmlns="http://www.w3.org/2000/svg" width="600" height="600">
<path fill="#c00" d="M0 0h600v600H0z"/>
<path fill="gold" d="m157.543 922.363-16.971 16.971-45.256 45.254-56.571 56.57 62.227 62.225 56.571-56.568 299.828 299.812a32 32 0 0 0 45.256 0 32 32 0 0 0 0-45.254l-299.826-299.814 16.971-16.971 50.915-50.91z" transform="translate(43 -799)"/>
<path fill="gold" d="M255.989 844s168.008 128 168.008 256c0 64-56.003 136-152.007 136-64.003 0-104.241-47.764-104.241-47.764l-11.313 11.313a16 16 0 0 0-22.628 0 16 16 0 0 0-2.48 3.223 32 32 0 0 0-31.463 8.091 32 32 0 0 0-9.331 21.545c-25.432 13.753-67.565 40.575-86.27 75.592l.03.029a32 32 0 0 0-.03 31.971 32 32 0 0 0 43.715 11.713c35.026-18.708 61.855-60.852 75.605-86.281a32 32 0 0 0 21.537-9.315 32 32 0 0 0 7.932-13.201C177.569 1265.97 224.497 1300 287.99 1300c96.005 0 200.01-72 200.01-200 0-160-232.011-256-232.011-256" transform="translate(43 -799)"/>
</svg>
