<svg xmlns="http://www.w3.org/2000/svg" width="43" height="43">
<path fill="#c4e3f5" stroke="#226d9b" stroke-width=".75" d="M9.697 18.176c1.229 1.103 1.812 2.751 2.541 4.266.334.694.803 1.32 1.06 2.002-1.729.156-1.724 1.983-1.949 3.364-.27 1.663-1.669 2.281-2.181 3.717-.486 1.365.811 3.24 1.334 4.501.667 1.603 1.121 2.721 2.259 3.962a81 81 0 0 0 1.965 2.048c.2.202 16.654.169 16.566-.045-.938-2.285-1.303-5.005-1.824-7.386-.334-1.531-.861-3.291-1.696-4.705-.876-1.485-1.919-2.637-2.523-4.296-1.112-3.058-1.771-6.128-2.198-9.284-.213-1.585-.068-3.161-.385-4.728-.311-1.539-.538-3.028-.768-4.596-.111-.764-.448-1.586-.632-2.332-.189-.773-.185-1.65-.573-2.371-.725-1.348-2.679-1.442-3.481-.135-.836 1.36-.065 3.101.106 4.514.193 1.577.518 3.085.536 4.708.016 1.426-.087 3.044.07 4.446.121 1.063 1.278 4.716-.247 5.263-1.458.521-3.033-4.282-3.841-5.16-1.084-1.181-1.944-2.376-2.922-3.654-.494-.644-1.277-1.122-1.781-1.78-.477-.625-.793-1.307-1.267-1.917-.892-1.145-1.941-2.649-3.579-2.184-2.451.697-.799 2.27-.05 3.47.907 1.452 1.628 3.07 2.429 4.575.892 1.681 1.628 2.477 3.031 3.737z"/>
<path fill="#c4e3f5" stroke="#226d9b" stroke-width=".75" d="M16.8 33.111c.02.722 2.211 3.294 2.94 3.556.714.258 1.634-.251 2.051-.816.57-.776.188-1.182-.048-2.017"/>
<path fill="#c4e3f5" stroke="#226d9b" stroke-width=".75" d="M16.832 27.927c-.851-1.77-1.971-3.413-3.742-3.483"/>
<path fill="#c4e3f5" stroke="#226d9b" stroke-width=".75" d="M13.326 30.189c-.648-.262-1.488-1.775-2.003-2.253"/>
<path fill="#c4e3f5" stroke="#226d9b" stroke-width=".75" d="M10.116 34.26c1.34.676 3.202.848 4.669 1.521.998.459 3.481 2.272 3.962.184"/>
<path fill="#c4e3f5" stroke="#226d9b" stroke-width=".75" d="M20.263 36.73c-.146 1.165 1.205 4.106 2.293 4.525"/>
<path fill="#c4e3f5" stroke="#226d9b" stroke-width=".75" d="M27.521 40.59c1.14-.574 1.276-2.417 1.301-3.498"/>
<path fill="#c4e3f5" stroke="#226d9b" stroke-width=".75" d="M18.824 33.976c.033-.078-.106-.224.046-.154.173.852.373 1.437 1.242 1.398 1.009-.045 1.3-.79 1.03-1.441"/>
<path fill="#c4e3f5" stroke="#226d9b" stroke-width=".75" d="M17.519 34.604c-.274.067-.58.277-.819.412.283.859 1.293 1.405 2.095.811"/>
<path fill="#c4e3f5" stroke="#226d9b" stroke-width=".75" d="M7.109 12.732c.534-.41 1.137-.712 1.639-1.132"/>
<path fill="#c4e3f5" stroke="#226d9b" stroke-width=".75" d="M17.844 7.109c.153.342 2.378-.004 2.963-.048"/>
<path fill="#c4e3f5" stroke="#226d9b" stroke-width=".75" d="M18.975 11.849c.583.483 1.914.346 2.545.038"/>
<path fill="#c4e3f5" stroke="#226d9b" stroke-width=".75" d="M9.454 16.888c.621-.717 1.83-1.275 2.578-2.044"/>
<path fill="#c4e3f5" stroke="#226d9b" stroke-width=".75" d="M11.745 36.693c-.038-.013-.284-.001-.151-.044.53-.293 1.276-.816 1.606-1.231"/>
<path fill="#c4e3f5" stroke="#226d9b" stroke-width=".75" d="M21.469 24.433c.007.982-.367 2.246-.651 3.185"/>
<path fill="#c4e3f5" stroke="#226d9b" stroke-width=".75" d="M26.943 29.84c2.635.032.927 4.769.161 4.633"/>
<path fill="#c4e3f5" stroke="#226d9b" stroke-width=".75" d="M25.526 28.568c-.784.818-3.318.04-4.231-.37-1.434-.643-2.843-.89-4.403-.439-1.265.365-3.183 1.022-3.348 2.58-.174 1.667 1.858 2.454 3.149 2.795 2.466.652 4.956.583 7.401 1.293"/>
<path fill="#c4e3f5" stroke="#226d9b" stroke-width=".75" d="M18.039 30.677c-.251 1.043-.621 1.581-1.71 1.515-.863-.051-1.968-.637-1.607-1.669.739-2.116 4.617-1.011 2.745 1.349"/>
</svg>
