<svg xmlns="http://www.w3.org/2000/svg" width="43" height="43">
<path fill="#ffd400" d="M12.081 20.407 8.935 17.39l7.163-7.162 5.171.955-4.058 4.138s19.046 18.007 19.841 18.882.053 1.808-.346 2.285-1.441 1.09-2.245.295c-.857-.845-19.064-19.603-19.064-19.603Z" />
<path fill="#ffd400" d="M12.073 27.125s7.686 4.087 12.201 3.6c4.515-.488 8.785-2.624 8.602-10.86S21.223 4.339 21.223 4.339s15.803 3.996 16.168 16.532c.305 10.471-6.04 14.399-12.445 14.094-6.407-.304-12.325-5.644-12.325-5.644l-.487.427.017.035s.481 1.006.085 1.463c-.754.869-1.453-.051-1.844.354-.392.404-1.18 3.02-2.377 4.197-1.198 1.176-2.273 1.645-3.078 1.241l-.319-.253c-.5-.75-.166-1.875.854-3.208 1.02-1.332 3.519-2.437 3.873-2.874s-.646-1.021.125-1.874c.405-.448 1.463-.095 1.463-.095z" />
</svg>
