<svg xmlns="http://www.w3.org/2000/svg" width="48" height="48" viewBox="0 0 512 512"><path stroke-width="1.18459" d="M188.479 28.56v59.229H96.08v35.537h319.838V87.79h-92.398v-59.23ZM209.8 49.881H302.2v37.907H209.8zm-93.585 94.767L151.88 483.44h208.243l35.66-338.792zm73.845 15.85.758 10.637 18.954 265.348.761 10.632-21.27 1.52-.758-10.637-18.954-265.348-.761-10.633zm131.878 0 21.27 1.52-.763 10.635L323.493 438l-.758 10.638-21.27-1.521.761-10.634 18.954-265.348.758-10.637zm-76.6.734h21.322v286.67H245.34z"/></svg>
